<?xml version="1.0" encoding="utf-8"?>
<!-- Generator: Adobe Illustrator 19.0.0, SVG Export Plug-In . SVG Version: 6.00 Build 0)  -->
<svg version="1.1" id="layer" xmlns="http://www.w3.org/2000/svg" xmlns:xlink="http://www.w3.org/1999/xlink" x="0px" y="0px"
	 viewBox="-153 -46 652 652" style="enable-background:new -153 -46 652 652;" xml:space="preserve">
<style type="text/css">
	.st0{fill:#E3000B;}
	.st1{fill:#FFFFFF;}
</style>
<path class="st0" d="M-133.8,263.1c-4.8,31.4,9.2,62.6,35.7,79.9c27,17.4,61.3,18.3,89.2,2.5c27.3-15.7,43.1-45.8,40.6-77.3
	c-1.2-14.4-6.5-28.1-15.2-39.6c-8-10.1-17.2-19.3-27.4-27.3c-12.2-10.1-39.9-37.3-40.3-60.8c-13.9,11.9-26.7,24.9-38.5,38.9
	c-13.7,15.7-25.2,33.2-34.2,52C-128.6,241.6-132,252.2-133.8,263.1"/>
<path d="M-22.7,140.7C-17.9,156.5-5,169,8.9,180.8c21.8,18.9,51.6,44.7,51.6,95.1c-0.1,30.7-13.1,59.8-35.9,80.3h440.8V140.7H-22.7z
	 M-22.7,140.7 M21.1,400.5v-20.9h13.7v2.3H23.6v6.7h10.9v2.3H23.7v7.2h11.2v2.3H21.1z M55.4,400.5l-6.7-8.9l-6.7,8.9h-3.1l8.2-10.7
	l-7.7-10.2h3.2l6.2,8.4l6.2-8.4h3.2l-7.7,10.1l8.1,10.7H55.4z M61.7,390.1c-0.2-6,4.7-11,10.7-10.8c3.2-0.1,6.1,1.5,7.9,4.1
	l-2.1,1.2c-1.3-1.9-3.4-3-5.6-3.1c-11.3,0-11.3,17,0,17c2.2,0,4.3-1.1,5.6-2.9l2.2,1.2c-1.8,2.6-4.8,4.2-7.9,4.1
	C66.3,401.2,61.3,396.2,61.7,390.1L61.7,390.1z M85.7,400.5v-20.9h13.7v2.3H88.2v6.7H99v2.3H88.3v7.2h11.2v2.3H85.7z M105.2,400.5
	v-20.9h2.6v18.6h9.7v2.3H105.2z M122.7,400.5v-20.9h2.6v18.6h9.7v2.3H122.7z M140.6,400.5v-20.9h13.7v2.3H143v6.7h10.9v2.3h-10.8
	v7.2h11.2v2.3H140.6z M175.2,400.5l-12.2-16.6v16.6h-2.6v-20.9h2.8l12,16.3v-16.3h2.6v20.9H175.2z M183.8,390.1
	c-0.2-6,4.7-11,10.7-10.8c3.2-0.1,6.2,1.5,7.9,4.1l-2.2,1.2c-1.3-1.9-3.4-3-5.6-3.1c-11.3,0-11.3,17,0,17c2.2-0.1,4.3-1.2,5.6-3.1
	l2.2,1.2c-1.8,2.6-4.8,4.2-8,4.1C188.5,401,183.6,396.1,183.8,390.1L183.8,390.1z M207.9,400.5v-20.9h13.7v2.3h-11.2v6.7h10.8v2.3
	h-10.8v7.2h11.2v2.3H207.9z M237.9,400.5v-20.9h2.6v20.9H237.9z M262.3,400.5l-12.2-16.6v16.6h-2.6v-20.9h2.6l12,16.3v-16.3h2.6
	v20.9H262.3z M296.7,400.5v-9.6h-12.2v9.6H282v-20.9h2.6v9h12.2v-9h2.6v20.9H296.7z M305.4,390.1c0.4-9.1,11.5-13.4,17.8-6.8
	c6.3,6.6,1.6,17.6-7.5,17.5C309.8,401,305.1,396,305.4,390.1L305.4,390.1z M323.5,390.1c-0.6-6.7-8.8-9.4-13.4-4.5
	c-4.5,4.9-1,12.9,5.6,12.9C320.3,398.5,323.8,394.6,323.5,390.1L323.5,390.1z M336.6,400.5V382H330v-2.3h15.8v2.3h-6.6v18.6H336.6z
	 M377.5,400.5l-4.6-16.8l-4.6,16.8h-2.8l-5.9-20.9h2.8L367,397l4.8-17.4h2.2l4.8,17.4l4.6-17.4h2.8l-6,20.9H377.5z M404.6,400.5
	l-1.8-4.7h-10.4l-1.8,4.7h-3l8.4-20.9h3.2l8.4,20.9H404.6z M397.6,382.3l-4.4,11.2h8.9L397.6,382.3z M415.5,400.5V382h-6.6v-2.3
	h15.8v2.3H418v18.6H415.5z M430.2,400.5v-20.9h13.7v2.3h-11.1v6.7h10.8v2.3h-10.8v7.2h11.1v2.3H430.2z M462.1,400.5l-5.3-8.4h-4.2
	v8.4H450v-20.9h8.4c3.6-0.3,6.7,2.6,6.6,6.3c0.2,3.2-2.3,5.9-5.4,6.1l5.6,8.4L462.1,400.5z M462.3,385.9c0.1-2.3-1.9-4.1-4.2-4h-5.6
	v8.1h5.6c2.4,0.2,4.4-1.7,4.3-4.1H462.3z M462.3,385.9"/>
<path class="st1" d="M-12.4,264.8c-0.6,8.2-4.5,20.6-14.3,21.2c-5,0.3-9.6-2.6-11.5-7.2c-1.2-4.2-0.8-8.6,0.9-12.6
	c3.4-9.7,8.4-20.1,4.3-30.4c-3.6-9.2-11.2-16.8-18.2-23.5c1,7.6,0.5,15.3-1.6,22.7c-2.3,6.2-6,11.9-10.7,16.6
	c-5.9,6.3-12.8,11.6-18.5,18c-5,5.7-8.3,12.7-9.4,20.1c-2.1,14.7,4.1,29.2,16.1,37.9c16.3,11.5,38.2,9.2,53.1-3.4
	c8.8-7.2,14.7-17.3,16.8-28.4c1.8-10.1,0.7-23.4-6.9-31 M393,286c0-5.3,4.3-9.6,9.6-9.6c5.3,0,9.5,4.3,9.5,9.6
	C412.1,298.7,393,298.7,393,286 M411,286c0-11.2-16.8-11.2-16.8,0S411,297.2,411,286 M398.8,280.8h4.5c2.2,0,3.8,1.1,3.8,3.1
	c0,1.4-0.9,2.7-2.3,3l2.6,3.7h-2.2l-2.3-3.3h-2v3.4h-1.9L398.8,280.8z M403,285.6c1.3,0,2-0.7,2-1.6c0-0.9-0.7-1.6-2-1.6h-2.4v3.2
	H403z M185.7,293.9l-5.7-15.4h-39l-5.6,15.4h-22.1l35-91.1h24.3l35.1,91.1H185.7z M160.5,222.2l-14.2,39.2h28.4L160.5,222.2z
	 M213.4,248.4c0-28,21.1-47.1,48.6-47.1c15.9-0.5,30.6,8.2,38,22.2l-16.7,8.2c-4.1-8-12.3-13-21.3-13.2c-16.7,0-28.7,12.7-28.7,29.9
	c0,17.2,12,29.9,28.7,29.9c9-0.2,17.2-5.3,21.3-13.2l16.7,8c-7.3,14.1-22.1,22.8-38,22.4C234.5,295.5,213.4,276.4,213.4,248.4
	 M340.4,293.9l-35.1-91.1h22l25.3,69.9l25.3-69.9h22l-35.1,91.1H340.4z M340.4,293.9"/>
</svg>
